PathFileType	4	(X/Y/Z)	Patient4_TMGait_0pt3_03_left_14.trc.trc
DataRate	CameraRate	NumFrames	NumMarkers	Units	OrigDataRate	OrigDataStartFrame	OrigNumFrames
54.263565891473	54.263565891473	7	33	mm	54.263565891473	106	       141
Frame#	Time	Sacral			L.Shoulder			Chest			R.Shoulder			Neck			R.ASIS			L.ASIS			R.Thigh.Superior			R.Thigh.Lateral			R.Thigh.Inferior			R.Patella			L.Thigh.Superior			L.Thigh.Lateral			L.Thigh.Inferior			L.Patella			L.Shank.Superior			L.Shank.Lateral			L.Shank.Inferior			R.Shank.Superior			R.Shank.Lateral			R.Shank.Inferior			R.Heel			R.Midfoot.Superior			R.Midfoot.Lateral			R.Toe			L.Heel			L.Midfoot.Lateral			L.Midfoot.Superior			L.Toe			L.Elbow			L.Wrist			R.Elbow			R.Wrist			
		X1	Y1	Z1	X2	Y2	Z2	X3	Y3	Z3	X4	Y4	Z4	X5	Y5	Z5	X6	Y6	Z6	X7	Y7	Z7	X8	Y8	Z8	X9	Y9	Z9	X10	Y10	Z10	X11	Y11	Z11	X12	Y12	Z12	X13	Y13	Z13	X14	Y14	Z14	X15	Y15	Z15	X16	Y16	Z16	X17	Y17	Z17	X18	Y18	Z18	X19	Y19	Z19	X20	Y20	Z20	X21	Y21	Z21	X22	Y22	Z22	X23	Y23	Z23	X24	Y24	Z24	X25	Y25	Z25	X26	Y26	Z26	X27	Y27	Z27	X28	Y28	Z28	X29	Y29	Z29	X30	Y30	Z30	X31	Y31	Z31	X32	Y32	Z32	X33	Y33	Z33	

106	27.405000000000	711.022099600693	987.182029042816	547.801486070024	860.529900650481	1422.715528258694	353.163958048969	980.653747283726	1359.485277993933	503.858994471680	911.432265045107	1430.422300364787	685.493867808914	855.740632344657	1482.887596118273	516.877115854265	953.900424051000	929.402611850779	642.443774027989	912.613813749946	956.125099143383	372.618923597570	1000.369527764466	732.546944924640	598.710711712802	930.250189799856	615.313273306373	658.512832033199	1002.460290431674	569.855780580148	569.444536746416	1005.689239499985	474.731753815945	571.874968451294	1006.615219118303	777.004453523463	393.356141169338	967.193850612831	651.691908957597	310.355385526046	1074.970780060721	593.082630541102	369.410658610885	1091.869492551422	504.936321430696	353.764656560455	1028.482913322944	436.695580788986	342.394529113418	886.638775009323	386.379873841213	304.307469037984	892.531316785162	251.123059126062	342.788213558531	961.539391391455	387.047366255266	578.954646228519	880.550321505900	292.096200734084	644.507591947247	899.192355914668	195.596034541080	575.742769994571	741.642992984776	43.184793798211	554.049610324352	914.040384216525	95.731089933894	583.631148761267	827.032193124983	37.034983921365	626.058016264817	1034.947437939731	43.042225384473	608.865731937075	717.049085848989	168.691042740235	396.452066580695	763.929387382881	135.405208089960	304.723483798317	869.965505413818	146.948797420733	312.605820181883	946.330430170779	42.779086957812	261.377392014206	787.390599009119	1072.886052482854	252.856082143868	833.155313221271	815.721973547615	241.985385956554	919.538218830345	1091.059512738319	827.551370657313	1145.365561906888	969.076788933684	840.954195229636	
107	27.423428571429	709.683345995235	988.264544579289	550.632231806750	858.040631758488	1423.170740951504	354.527397889920	980.120217889458	1359.443546809290	503.460039697040	913.796925835425	1430.679223490005	686.089300307537	855.748521473552	1483.234886520232	518.451011042917	953.333448370725	929.183293809821	642.435446240430	909.352109141320	956.511990903064	373.098774227075	997.853241576180	731.885711927576	598.504650489353	927.358170558506	615.142701236590	658.926164413147	998.534519125067	569.246584724194	569.261189291666	1001.116554367772	474.235196373040	571.675540559197	1002.877218771014	777.802080417740	393.706957817123	963.455457475264	652.519535080298	310.751117093086	1071.365041567459	594.343972490793	369.521493651535	1089.461074934841	507.437348723876	353.561612208003	1029.093699664556	438.124605668247	341.824327662366	890.184974351773	380.682770018742	304.420642774449	903.953198480747	245.670999953599	341.827980647938	956.709445745128	386.773520219841	578.979025544217	875.744275884888	291.933976822513	644.735771566201	893.918062160667	195.470344357969	575.837517002083	736.085437699064	43.205872612957	554.114401250939	908.506879752166	95.688832558189	583.709020243086	821.475524867693	37.028690737344	626.133278707753	1029.394843983301	42.906720413289	608.906265926954	734.126260204426	151.592314495873	396.288645318946	782.484911199224	123.272132238538	303.469951789376	887.459544017498	141.646422462480	310.725873103816	970.157090775220	44.021919144173	256.981911793707	775.432675690051	1075.229993657244	256.659109670824	808.901164957184	816.011133326785	249.265834426417	928.163685155804	1091.257134032132	827.175135723117	1160.421682167603	982.972952109239	835.908889728924	
108	27.441857142857	708.403540929013	989.729840169089	553.261174203080	855.665230484591	1423.953765739666	355.700430133183	979.684165603765	1359.640665955012	502.792240830679	916.349262341448	1431.181819524115	686.384951375218	855.862082723471	1483.847733955374	519.808923805651	952.751992007588	929.179768748887	642.146132461963	906.062816000979	957.124551975723	373.321253654458	994.988826773797	731.329393181825	598.153412175999	923.972607772906	615.214604394042	659.306662613281	994.011068144094	568.754786957533	569.066692301262	995.853684532020	473.964681511343	571.526539807912	998.663665427706	778.353255278313	393.577670251766	958.683914890083	653.114615246290	310.849156508967	1066.659058534589	595.154205541967	369.152227421128	1085.855047244996	509.749660777553	353.047447761179	1028.887181936917	439.449242101997	341.073261618471	893.757821132349	374.286996478354	303.896383640820	915.868570687117	240.070503641569	340.596607202964	951.348716258606	386.724486318945	579.058706504486	870.563063722317	291.883991657787	645.017558029244	888.433234617611	195.468960149954	575.986090544231	730.517697335628	43.231926266737	554.191900893072	902.961626692524	95.638259531744	583.782359630146	815.918552717216	37.021088435335	626.217243372713	1023.838253408681	42.779200183910	608.937363022143	752.504086246305	134.307771233775	395.238171876025	802.574127902427	110.634333977501	301.826727125185	906.029840800658	136.092029518760	308.882142046339	995.183186378089	45.373246987992	253.712323717571	763.645477601695	1078.274180524833	260.138003555276	786.365391224734	817.785240466641	256.390895854335	936.900902096085	1091.814233315723	826.356844959887	1174.689213156264	997.624235002606	830.013062052357	
109	27.460285714286	707.193654449247	991.521200584044	555.687204778888	853.388244525479	1425.017200019491	356.673078281882	979.335122979197	1360.041703451628	501.845805030346	919.084112608861	1431.900757096485	686.365316370248	856.075997561336	1484.688478746690	520.945504142283	952.151695896350	929.362477917518	641.581942857402	902.749514549881	957.942420610482	373.288592817526	991.815434611421	730.869661953345	597.674406010602	920.137397421022	615.504520644208	659.641516837002	988.958864780796	568.374830041681	568.866689331749	989.982336545036	473.906377366883	571.425180630415	994.050467449959	778.692887306779	393.004107005618	953.007240571584	653.494308272291	310.689179231369	1060.997974674644	595.547489348331	368.365794420796	1081.198755233284	511.882050485728	352.309499247699	1027.924225600476	440.730705581902	340.234533579859	897.395888716793	367.539947823326	302.791354589303	928.045392204769	234.709812110800	339.184009229752	945.529375286734	386.884195184634	579.185987391706	865.053295958877	291.946182806510	645.342994282748	882.768000224278	195.585754445236	576.177818814855	724.941264548871	43.269202404252	554.284225943192	897.408149426200	95.580260629721	583.851860145495	810.362450204338	37.014145746511	626.308426185443	1018.279837393574	42.654407197816	608.960089705015	771.840528417995	117.614013056488	393.398778718875	823.807017482043	98.187654213594	299.882433669225	925.280440521898	130.746324153548	307.151268941988	1020.774233861031	47.074337484608	251.644403340207	752.131383850244	1081.914807383593	263.314274002100	765.676259416689	820.739435968641	263.251793920919	945.708630065170	1092.721891528754	825.135652607452	1188.046739070094	1012.856936940237	823.350855121235	
110	27.478714285714	706.063308740781	993.565377864453	557.898522322514	851.198465399617	1426.298787438756	357.435570686860	979.061765622786	1360.597020693982	500.615720786867	921.984857334658	1432.788399952999	686.018581689805	856.384088817191	1485.704668084842	521.854197859999	951.526300164884	929.689893067946	640.752475772517	899.424533001918	958.930351623494	373.003819589815	988.377843320705	730.490864375756	597.082240095281	915.909745398496	615.978203140382	659.915703991523	983.462528275848	568.093972083711	568.662496794132	983.604637326568	474.035194103925	571.364391127967	989.124582885756	778.849243691544	392.040375935193	946.584301608958	653.675755199190	310.318776112756	1054.551505014569	595.556161211490	367.246163928683	1075.659114665961	513.829304136651	351.446324782739	1026.272311003059	442.011214341153	339.398952120629	901.083306894519	360.773090715005	301.209281991476	940.205399000058	229.909784612231	337.688413570505	939.337514191221	387.225741230860	579.349299734007	859.269865382383	292.114829553760	645.698128287130	876.956943618961	195.809095521547	576.400460440682	719.358635057665	43.321293747268	554.391343204642	891.850232196749	95.517299569864	583.919543657256	804.807928912929	37.009280031030	626.404591713377	1012.721055242739	42.529302179992	608.976102165937	791.697139164014	102.145869339410	390.930955767595	845.696712937729	86.531894976895	297.752471046136	944.758712539275	126.002077409120	305.600502593474	1046.283652130507	49.333755641235	250.761399912862	741.002959531454	1086.021038152299	266.203992588759	746.907622957466	824.559231702314	269.750662735428	954.537964545155	1093.946150971103	823.543992341155	1200.395758053417	1028.464983162144	816.013755357832	
111	27.497142857143	705.019480394640	995.775745431181	559.874078273246	849.090952531816	1427.724783783564	357.977113784607	978.851989805254	1361.245393891210	499.102816025145	925.020136667352	1433.781423113984	685.338082415873	856.778111143965	1486.831929111139	522.525179374980	950.870349396380	930.112624067197	639.672723273575	896.108269837692	960.037078633854	372.472505268884	984.726604727714	730.171977672688	596.388407408805	911.361141486038	616.594639357702	660.115912389954	977.619214791144	567.893100329975	568.452338233950	976.838651407842	474.315522243839	571.335408307371	983.984910204518	778.840563274434	390.753526902933	939.603146239720	653.672907887975	309.788623073241	1047.511455792824	595.208014225620	365.890471604478	1069.419744169397	515.568930570359	350.557250090298	1024.007275302015	443.304634107175	338.644994572382	904.751392558478	354.272762842029	299.288183350402	952.039834344807	225.894862736436	336.206975967517	932.868913940805	387.712652590828	579.535654269963	853.273227234332	292.377929286218	646.066943027586	871.037872937536	196.121829731018	576.642102419367	713.772347348069	43.388947151444	554.510720686063	886.291306946644	95.452848176491	583.987897525754	799.254895475807	37.007110717475	626.502845121265	1007.162298533296	42.403123888225	608.987627903878	811.562423861887	88.363782584813	388.037449960705	867.678977763109	76.124279932407	295.567257841961	963.973727171197	122.141017031446	304.283969513474	1071.072994818108	52.277094953943	250.966801302921	730.376424138117	1090.441196952110	268.814576530364	730.086125857681	828.936649066152	275.802287997924	963.336111179707	1095.429647228426	821.606535786505	1211.667225660334	1044.219089463936	808.097393569530	
112	27.515571428571	704.065107033643	998.056348743211	561.585846348711	847.068049711906	1429.214272761624	358.284283803578	978.692786955660	1361.918402712601	497.314106797161	928.141922727854	1434.805579386288	684.323170968407	857.246659899356	1487.998034234430	522.943895099596	950.181192697458	930.577797494936	638.364229384761	892.828256343511	961.196049967415	371.704184915037	980.918999849367	729.888694497873	595.601153300069	906.577550219135	617.308878651405	660.232228404755	971.536044926406	567.747989583939	568.231606717857	969.814168758713	474.702699321051	571.328651303303	978.741132579963	778.673393210195	389.218443045219	932.274242161290	653.493914595843	309.149080698195	1040.085223795733	594.525999229488	364.401146625614	1062.676176944742	517.061617964842	349.732238628531	1021.212842907692	444.591376977886	338.031574872590	908.284471681454	348.257968782708	297.186120751994	963.226392631762	222.776821788493	334.828590422677	926.225313476037	388.300744529722	579.731653685135	847.127476673273	292.717351130650	646.432661024181	865.050492330287	196.501597020358	576.891851950857	708.184214364188	43.470230321755	554.637560900690	880.733945174517	95.390729262366	584.058986635404	793.702339836360	37.007366847976	626.599899973590	1001.602945840197	42.277086072516	608.997204100266	830.880491757222	76.541498735635	384.944067439060	889.137147365209	67.253527996980	293.460712774762	982.416525619655	119.307692143581	303.240639963948	1094.528768211373	55.912097643085	252.099308074518	720.365772331549	1095.009875552822	271.142871261210	715.198117886592	833.582964392968	281.333607530229	972.049554585150	1097.096080867693	819.339622817146	1221.825534037402	1059.878384874070	799.698773662933	
